<?xml version="1.0" encoding="UTF-8"?>
<svg width="30px" height="30px" viewBox="0 0 30 30" version="1.1" xmlns="http://www.w3.org/2000/svg" xmlns:xlink="http://www.w3.org/1999/xlink">
    <title>add@3x</title>
    <g id="Symbols" stroke="none" stroke-width="1" fill="none" fill-rule="evenodd">
        <g id="Bars/Tab-bar/Desktop/Light" transform="translate(-440.000000, -14.000000)" fill="#222222" fill-rule="nonzero">
            <g id="add" transform="translate(440.000000, 14.000000)">
                <path d="M14.9707617,0.0292382812 C10.198418,0.0292382812 6.31582031,3.91189453 6.31582031,8.68417969 C6.31582031,11.6401758 7.80580078,14.2543945 10.0738477,15.8164453 C7.95632812,16.547168 6.01546875,17.7541992 4.38492187,19.3847461 C1.55724609,22.2124805 0,25.9719141 0,29.9707617 L2.33917969,29.9707617 C2.33917969,23.0056641 8.00566406,17.3391797 14.9707617,17.3391797 C19.7431055,17.3391797 23.6257031,13.4565234 23.6257031,8.68417969 C23.6257031,3.91183594 19.7431055,0.0292382812 14.9707617,0.0292382812 Z M14.9707617,15 C11.4882422,15 8.655,12.1667578 8.655,8.68423828 C8.655,5.20171875 11.4882422,2.36841797 14.9707617,2.36841797 C18.4532812,2.36841797 21.2865234,5.20166016 21.2865234,8.68423828 C21.2865234,12.1668164 18.4532812,15 14.9707617,15 Z" id="Shape"></path>
                <polygon id="Path" points="25.0877344 22.7193164 25.0877344 17.8069922 22.7485547 17.8069922 22.7485547 22.7193164 17.8362305 22.7193164 17.8362305 25.0584961 22.7485547 25.0584961 22.7485547 29.9707617 25.0877344 29.9707617 25.0877344 25.0584961 30 25.0584961 30 22.7193164"></polygon>
            </g>
        </g>
    </g>
</svg>