<?xml version="1.0" encoding="UTF-8"?>
<svg width="33px" height="30px" viewBox="0 0 33 30" version="1.1" xmlns="http://www.w3.org/2000/svg" xmlns:xlink="http://www.w3.org/1999/xlink">
    <title>chat@3x</title>
    <g id="Symbols" stroke="none" stroke-width="1" fill="none" fill-rule="evenodd">
        <g id="Bars/Tab-bar/Desktop/Light" transform="translate(-610.000000, -15.000000)" fill="#222222" fill-rule="nonzero">
            <g id="chat" transform="translate(610.000000, 15.000000)">
                <path d="M31.6366094,7.45873391 C30.7991845,5.74570815 29.5682189,4.29450644 27.9779614,3.14549356 C25.1589914,1.10877682 21.1832833,0.0321888412 16.4806867,0.0321888412 C11.7780901,0.0321888412 7.80238197,1.10871245 4.98341202,3.14549356 C3.39315451,4.29450644 2.16218884,5.74570815 1.32476395,7.45873391 C0.445751073,9.25693133 0,11.3501073 0,13.6802575 C0,18.72 2.07843348,22.5754506 6.02671674,24.8945279 C5.48053648,26.8214163 4.77186695,27.9891631 4.76549356,27.9995923 L3.54341202,29.9643991 L5.85811159,29.9678112 L5.86480687,29.9678112 C5.87143777,29.9678112 5.87819742,29.9678112 5.88534335,29.9678112 C6.61583691,29.9678112 9.96727468,29.8102146 12.6923176,27.0766738 C13.8936052,27.2437983 15.1646781,27.3283262 16.4806867,27.3283262 C21.1832833,27.3283262 25.1589914,26.2517382 27.9779614,24.2150215 C29.5682189,23.0659442 30.7991845,21.6148069 31.6366094,19.9017811 C32.5156223,18.1035837 32.9613734,16.0104077 32.9613734,13.6802575 C32.9613734,11.3501073 32.5156223,9.25686695 31.6366094,7.45873391 Z M26.4697854,22.1277039 C24.0925107,23.8453004 20.6383906,24.7532189 16.4806867,24.7532189 C15.0520815,24.7532189 13.6889485,24.6447425 12.4290773,24.4307511 L11.7121674,24.3090129 L11.2377682,24.8600858 C10.218412,26.0439914 9.04158798,26.6761803 8.04257511,27.0128112 C8.30201717,26.312897 8.56474249,25.4729614 8.7767382,24.5158584 L8.99530043,23.5295279 L8.0893133,23.0826824 C4.43034335,21.2778541 2.5751073,18.1143991 2.5751073,13.6802575 C2.5751073,9.95259657 3.8927897,7.11045064 6.49158798,5.23281116 C8.86879828,3.51521459 12.3229828,2.60729614 16.4806867,2.60729614 C20.6383906,2.60729614 24.0925751,3.51515021 26.4697854,5.23281116 C29.0685837,7.11045064 30.3862661,9.95266094 30.3862661,13.6802575 C30.3862661,17.4078541 29.0685837,20.25 26.4697854,22.1277039 Z" id="Shape"></path>
            </g>
        </g>
    </g>
</svg>