<?xml version="1.0" encoding="UTF-8"?>
<svg width="32px" height="30px" viewBox="0 0 32 30" version="1.1" xmlns="http://www.w3.org/2000/svg" xmlns:xlink="http://www.w3.org/1999/xlink">
    <title>home@3x</title>
    <g id="Symbols" stroke="none" stroke-width="1" fill="none" fill-rule="evenodd">
        <g id="Bars/Tab-bar/Desktop/Light" transform="translate(-90.000000, -15.000000)" fill="#222222" fill-rule="nonzero">
            <g id="home" transform="translate(90.000000, 15.000000)">
                <path d="M15.6734694,0.0587755102 L0,13.6699592 L1.60444898,15.5174694 L3.07181633,14.2431429 L3.07181633,26.2708163 C3.07181633,28.2946531 4.71832653,29.9412245 6.74222449,29.9412245 L13.5936122,29.9412245 L13.5936122,17.9512653 L17.8757143,17.9512653 L17.8757143,29.9412245 L24.6047755,29.9412245 C26.6286122,29.9412245 28.2751837,28.2947143 28.2751837,26.2708163 L28.2751837,14.2432041 L29.742551,15.5175306 L31.3469388,13.6700204 L15.6734694,0.0587755102 Z M25.8282245,26.2708163 C25.8282245,26.945449 25.2794082,27.4943265 24.6047755,27.4943265 L20.3226735,27.4943265 L20.3226735,15.5043673 L11.1466531,15.5043673 L11.1466531,27.4943265 L6.74216327,27.4943265 C6.06753061,27.4943265 5.51871429,26.9455102 5.51871429,26.2708776 L5.51871429,12.1182245 L15.6734694,3.29963265 L25.8282245,12.1182245 L25.8282245,26.2708163 Z" id="Shape"></path>
            </g>
        </g>
    </g>
</svg>