<?xml version="1.0" encoding="UTF-8"?>
<svg width="30px" height="30px" viewBox="0 0 30 30" version="1.1" xmlns="http://www.w3.org/2000/svg" xmlns:xlink="http://www.w3.org/1999/xlink">
    <title>menu@3x</title>
    <g id="Symbols" stroke="none" stroke-width="1" fill="none" fill-rule="evenodd">
        <g id="Bars/Tab-bar/Desktop/Light" transform="translate(-265.000000, -15.000000)" fill="#222222" fill-rule="nonzero">
            <g id="menu" transform="translate(265.000000, 15.000000)">
                <path d="M10.3589063,0 L3.46921875,0 C1.55630859,0 0,1.55630859 0,3.46921875 L0,10.3589063 C0,12.2718164 1.55630859,13.828125 3.46921875,13.828125 L10.3589063,13.828125 C12.2718164,13.828125 13.828125,12.2718164 13.828125,10.3589063 L13.828125,3.46921875 C13.828125,1.55630859 12.2718164,0 10.3589063,0 Z M11.484375,10.3589063 C11.484375,10.9794727 10.9794727,11.484375 10.3589063,11.484375 L3.46921875,11.484375 C2.84865234,11.484375 2.34375,10.9794727 2.34375,10.3589063 L2.34375,3.46921875 C2.34375,2.84865234 2.84865234,2.34375 3.46921875,2.34375 L10.3589063,2.34375 C10.9794727,2.34375 11.484375,2.84865234 11.484375,3.46921875 L11.484375,10.3589063 Z" id="Shape"></path>
                <path d="M26.484375,0 L19.6875,0 C17.7489844,0 16.171875,1.57710938 16.171875,3.515625 L16.171875,10.3125 C16.171875,12.2510156 17.7489844,13.828125 19.6875,13.828125 L26.484375,13.828125 C28.4228906,13.828125 30,12.2510156 30,10.3125 L30,3.515625 C30,1.57710938 28.4228906,0 26.484375,0 Z M27.65625,10.3125 C27.65625,10.9586719 27.1305469,11.484375 26.484375,11.484375 L19.6875,11.484375 C19.0413281,11.484375 18.515625,10.9586719 18.515625,10.3125 L18.515625,3.515625 C18.515625,2.86945313 19.0413281,2.34375 19.6875,2.34375 L26.484375,2.34375 C27.1305469,2.34375 27.65625,2.86945313 27.65625,3.515625 L27.65625,10.3125 Z" id="Shape"></path>
                <path d="M10.3589063,16.171875 L3.46921875,16.171875 C1.55630859,16.171875 0,17.7281836 0,19.6410938 L0,26.5307813 C0,28.4436914 1.55630859,30 3.46921875,30 L10.3589063,30 C12.2718164,30 13.828125,28.4436914 13.828125,26.5307812 L13.828125,19.6410938 C13.828125,17.7281836 12.2718164,16.171875 10.3589063,16.171875 Z M11.484375,26.5307812 C11.484375,27.1513477 10.9794727,27.65625 10.3589063,27.65625 L3.46921875,27.65625 C2.84865234,27.65625 2.34375,27.1513477 2.34375,26.5307812 L2.34375,19.6410938 C2.34375,19.0205273 2.84865234,18.515625 3.46921875,18.515625 L10.3589063,18.515625 C10.9794727,18.515625 11.484375,19.0205273 11.484375,19.6410937 L11.484375,26.5307812 Z" id="Shape"></path>
                <path d="M26.484375,16.171875 L19.6875,16.171875 C17.7489844,16.171875 16.171875,17.7489844 16.171875,19.6875 L16.171875,26.484375 C16.171875,28.4228906 17.7489844,30 19.6875,30 L26.484375,30 C28.4228906,30 30,28.4228906 30,26.484375 L30,19.6875 C30,17.7489844 28.4228906,16.171875 26.484375,16.171875 Z M27.65625,26.484375 C27.65625,27.1305469 27.1305469,27.65625 26.484375,27.65625 L19.6875,27.65625 C19.0413281,27.65625 18.515625,27.1305469 18.515625,26.484375 L18.515625,19.6875 C18.515625,19.0413281 19.0413281,18.515625 19.6875,18.515625 L26.484375,18.515625 C27.1305469,18.515625 27.65625,19.0413281 27.65625,19.6875 L27.65625,26.484375 Z" id="Shape"></path>
            </g>
        </g>
    </g>
</svg>