<?xml version="1.0" encoding="UTF-8"?>
<svg width="17px" height="17px" viewBox="0 0 17 17" version="1.1" xmlns="http://www.w3.org/2000/svg" xmlns:xlink="http://www.w3.org/1999/xlink">
    <title>mixer@3x</title>
    <g id="Symbols" stroke="none" stroke-width="1" fill="none" fill-rule="evenodd">
        <g id="Controls/Buttons/Dark/Filter" transform="translate(-7.000000, -7.000000)" fill="#979797" fill-rule="nonzero">
            <g id="mixer" transform="translate(7.000000, 7.000000)">
                <path d="M8.95182292,9.09635417 L8.95182292,0 L7.59548611,0 L7.59548611,9.09635417 C6.80616591,9.36510417 6.23914931,10.0887695 6.23914931,10.9375 C6.23914931,11.7862305 6.80616591,12.5098958 7.59548611,12.7786458 L7.59548611,16.6666667 L8.95182292,16.6666667 L8.95182292,12.7786458 C9.74114312,12.5098958 10.3081597,11.7862305 10.3081597,10.9375 C10.3081597,10.0887695 9.74114312,9.36510417 8.95182292,9.09635417 Z M8.27365451,11.5885417 C7.89971246,11.5885417 7.59548611,11.2964844 7.59548611,10.9375 C7.59548611,10.5785156 7.89971246,10.2864583 8.27365451,10.2864583 C8.64759657,10.2864583 8.95182292,10.5785156 8.95182292,10.9375 C8.95182292,11.2964844 8.64759657,11.5885417 8.27365451,11.5885417 Z" id="Shape"></path>
                <path d="M2.71267361,2.84635417 L2.71267361,0 L1.35633681,0 L1.35633681,2.84635417 C0.567016602,3.11510417 0,3.83876953 0,4.6875 C0,5.53623047 0.567016602,6.25989583 1.35633681,6.52864583 L1.35633681,16.6666667 L2.71267361,16.6666667 L2.71267361,6.52864583 C3.50199382,6.25989583 4.06901042,5.53623047 4.06901042,4.6875 C4.06901042,3.83876953 3.50199382,3.11510417 2.71267361,2.84635417 Z M2.03450521,5.33854167 C1.66056315,5.33854167 1.35633681,5.04648438 1.35633681,4.6875 C1.35633681,4.32851562 1.66056315,4.03645833 2.03450521,4.03645833 C2.40844727,4.03645833 2.71267361,4.32851562 2.71267361,4.6875 C2.71267361,5.04648438 2.40844727,5.33854167 2.03450521,5.33854167 Z" id="Shape"></path>
                <path d="M15.1909722,5.45052083 L15.1909722,0 L13.8346354,0 L13.8346354,5.45052083 C13.0453152,5.71927083 12.4782986,6.4429362 12.4782986,7.29166667 C12.4782986,8.14039714 13.0453152,8.8640625 13.8346354,9.1328125 L13.8346354,16.6666667 L15.1909722,16.6666667 L15.1909722,9.1328125 C15.9802924,8.8640625 16.547309,8.14039714 16.547309,7.29166667 C16.547309,6.4429362 15.9802924,5.71927083 15.1909722,5.45052083 Z M14.5128038,7.94270833 C14.1388618,7.94270833 13.8346354,7.65065104 13.8346354,7.29166667 C13.8346354,6.93268229 14.1388618,6.640625 14.5128038,6.640625 C14.8867459,6.640625 15.1909722,6.93268229 15.1909722,7.29166667 C15.1909722,7.65065104 14.8867459,7.94270833 14.5128038,7.94270833 Z" id="Shape"></path>
            </g>
        </g>
    </g>
</svg>