<?xml version="1.0" encoding="UTF-8"?>
<svg width="24px" height="25px" viewBox="0 0 24 25" version="1.1" xmlns="http://www.w3.org/2000/svg" xmlns:xlink="http://www.w3.org/1999/xlink">
    <title>mixer</title>
    <g id="Symbols" stroke="none" stroke-width="1" fill="none" fill-rule="evenodd">
        <g id="Controls/Buttons/Dark/Filter-Large" transform="translate(-8.000000, -8.000000)" fill="#979797" fill-rule="nonzero">
            <g id="mixer" transform="translate(8.000000, 8.000000)">
                <path d="M12.890625,13.6445312 L12.890625,0 L10.9375,0 L10.9375,13.6445312 C9.80087891,14.0476563 8.984375,15.1331543 8.984375,16.40625 C8.984375,17.6793457 9.80087891,18.7648437 10.9375,19.1679688 L10.9375,25 L12.890625,25 L12.890625,19.1679688 C14.0272461,18.7648437 14.84375,17.6793457 14.84375,16.40625 C14.84375,15.1331543 14.0272461,14.0476563 12.890625,13.6445312 Z M11.9140625,17.3828125 C11.3755859,17.3828125 10.9375,16.9447266 10.9375,16.40625 C10.9375,15.8677734 11.3755859,15.4296875 11.9140625,15.4296875 C12.4525391,15.4296875 12.890625,15.8677734 12.890625,16.40625 C12.890625,16.9447266 12.4525391,17.3828125 11.9140625,17.3828125 Z" id="Shape"></path>
                <path d="M3.90625,4.26953125 L3.90625,0 L1.953125,0 L1.953125,4.26953125 C0.816503906,4.67265625 0,5.7581543 0,7.03125 C0,8.3043457 0.816503906,9.38984375 1.953125,9.79296875 L1.953125,25 L3.90625,25 L3.90625,9.79296875 C5.04287109,9.38984375 5.859375,8.3043457 5.859375,7.03125 C5.859375,5.7581543 5.04287109,4.67265625 3.90625,4.26953125 Z M2.9296875,8.0078125 C2.39121094,8.0078125 1.953125,7.56972656 1.953125,7.03125 C1.953125,6.49277344 2.39121094,6.0546875 2.9296875,6.0546875 C3.46816406,6.0546875 3.90625,6.49277344 3.90625,7.03125 C3.90625,7.56972656 3.46816406,8.0078125 2.9296875,8.0078125 Z" id="Shape"></path>
                <path d="M21.875,8.17578125 L21.875,0 L19.921875,0 L19.921875,8.17578125 C18.7852539,8.57890625 17.96875,9.6644043 17.96875,10.9375 C17.96875,12.2105957 18.7852539,13.2960937 19.921875,13.6992188 L19.921875,25 L21.875,25 L21.875,13.6992188 C23.0116211,13.2960937 23.828125,12.2105957 23.828125,10.9375 C23.828125,9.6644043 23.0116211,8.57890625 21.875,8.17578125 Z M20.8984375,11.9140625 C20.3599609,11.9140625 19.921875,11.4759766 19.921875,10.9375 C19.921875,10.3990234 20.3599609,9.9609375 20.8984375,9.9609375 C21.4369141,9.9609375 21.875,10.3990234 21.875,10.9375 C21.875,11.4759766 21.4369141,11.9140625 20.8984375,11.9140625 Z" id="Shape"></path>
            </g>
        </g>
    </g>
</svg>