<?xml version="1.0" encoding="UTF-8"?>
<svg width="15px" height="15px" viewBox="0 0 15 15" version="1.1" xmlns="http://www.w3.org/2000/svg" xmlns:xlink="http://www.w3.org/1999/xlink">
    <title>Shape@3x</title>
    <g id="Symbols" stroke="none" stroke-width="1" fill="none" fill-rule="evenodd">
        <g id="Bars/Navigation-Bar/Mobile/Dark/Search-Fields" transform="translate(-16.000000, -8.000000)" fill="#979797" fill-rule="nonzero">
            <path d="M26.1987341,16.8502224 C27.9890511,14.3221374 27.3902828,10.8214815 24.8621977,9.03159215 C22.3341126,7.24170281 18.8334569,7.84004328 17.0435675,10.3685561 C15.2536782,12.8966412 15.8520188,16.3968693 18.3805315,18.1867586 C20.1849623,19.4642735 22.5706262,19.5626426 24.4738538,18.4386691 L28.6092039,22.549213 C29.055714,23.0192461 29.7986143,23.0380645 30.2686473,22.5915545 C30.7386804,22.1454721 30.7574988,21.4025718 30.3114166,20.9325388 C30.2973027,20.9175696 30.2836165,20.9038835 30.2686473,20.8897696 L26.1987341,16.8502224 Z M21.6177293,17.2334341 C19.6199818,17.2338618 18.0003136,15.6154768 17.9990304,13.6177293 C17.9986028,11.6199818 19.6169879,10.0003136 21.6151631,9.99945795 C23.6103444,9.99860285 25.2291572,11.6144218 25.2330118,13.6096031 C25.2364279,15.6077783 23.6188983,17.2300125 21.6202954,17.2334341 C21.61944,17.2334341 21.6190123,17.2334341 21.6177293,17.2334341 Z" id="Shape"></path>
        </g>
    </g>
</svg>